<svg xmlns="http://www.w3.org/2000/svg" width="32" height="32" viewBox="0 0 32 32">
  <path fill="#fff" d="M15.875 0.125c-9 0-15.75 6.375-15.75 15.75 0 8.938 6.75 16.125 15.75 16.125s15.813-7.313 16-16c0-9.375-7.188-16-16-15.875zM15.375 1.125v6.375c-1.875 0-3.688-0.375-5.375-1.125 0.188-0.375 0.375-0.75 0.625-1.188 1.375-2.5 2.875-3.688 4.688-4 0 0 0.063 0 0.063 0zM16.375 1.125c0.125 0 0.125 0 0.25 0 1.75 0.25 3.25 1.5 4.563 4 0.188 0.375 0.438 0.75 0.625 1.188-1.688 0.688-3.5 1.063-5.438 1.188zM19.375 1.5c2.125 0.5 4.125 1.375 5.813 2.813-0.813 0.563-1.688 1.188-2.688 1.688-0.813-1.875-1.875-3.5-3.125-4.5zM12.188 1.5c-1.188 1.125-2.188 2.625-3 4.5-0.875-0.5-1.813-1-2.688-1.688 1.813-1.188 3.875-2.313 5.688-2.688zM25.875 4.625c3 2.75 4.938 6.688 5 10.875h-6.5c0-3.313-0.563-6.313-1.563-8.813 1.063-0.5 2.063-1.188 3.063-2zM5.875 4.813c1 0.688 2 1.375 3 1.875-1 2.5-1.5 5.5-1.563 8.813h-6.188c0.188-4.188 1.875-8 4.75-10.688zM22.125 7c0.875 2.5 1.375 5.375 1.5 8.5h-7.25v-7.188c2-0.125 3.938-0.5 5.75-1.188zM9.688 7.125c1.813 0.688 3.688 1.063 5.688 1.188v7.188h-7.188c0.125-3.125 0.625-6 1.5-8.375zM1.125 16.5h6.188c0.063 3.375 0.688 6.5 1.688 9.125-1 0.5-2 1.063-2.875 1.75-3-2.688-4.938-6.563-5-10.875zM8.188 16.5h7.188v7.5c-1.875 0.125-3.75 0.5-5.563 1.188-1-2.5-1.5-5.5-1.625-8.688zM16.375 16.5h7.25c-0.125 3.188-0.625 6.188-1.625 8.688-1.813-0.688-3.688-1.063-5.625-1.188zM24.5 16.5h6.375c-0.063 4.375-2 8.313-5.063 10.875-0.938-0.688-2-1.25-3-1.875 1-2.5 1.563-5.625 1.688-9zM15.375 24.813v6.063c-1.875-0.188-3.5-1.375-4.75-4-0.25-0.25-0.313-0.563-0.5-0.875 1.688-0.688 3.5-1.125 5.25-1.125zM16.313 24.813c1.813 0.063 3.563 0.375 5.313 1.063-0.125 0.313-0.313 0.625-0.5 0.938-1.438 2.5-3.125 3.813-4.938 4zM9.313 26.313c0.875 1.875 2 3.375 3.313 4.375-2.25-0.5-4.25-1.5-5.938-2.813 0.813-0.563 1.688-1.063 2.625-1.563zM22.375 26.313c1 0.5 1.938 1 2.75 1.563-1.75 1.313-3.813 2.313-6 2.813 1.25-1 2.375-2.5 3.25-4.375z"></path>
</svg>
